<svg width="53" height="53" viewBox="0 0 53 53" fill="none" xmlns="http://www.w3.org/2000/svg">
<path d="M25.916 41.6753C26.1645 41.6753 26.4193 41.6195 26.6805 41.5079C26.9416 41.3964 27.1527 41.2601 27.3137 41.0991L42.1387 26.2721C42.6167 25.7942 42.9856 25.3061 43.2455 24.8079C43.5041 24.3071 43.6334 23.7582 43.6334 23.1611C43.6334 22.5564 43.5041 21.9694 43.2455 21.4002C42.9856 20.8297 42.6167 20.3099 42.1387 19.8409L35.0077 12.7098C34.5373 12.2318 34.0537 11.8813 33.5567 11.6582C33.061 11.4351 32.5108 11.3235 31.9061 11.3235C31.309 11.3235 30.7544 11.4351 30.2422 11.6582C29.73 11.8813 29.2477 12.2312 28.7951 12.7079L27.1369 14.3661L30.6549 17.8936C31.0326 18.265 31.3147 18.6872 31.5011 19.1601C31.6862 19.6329 31.7787 20.1128 31.7787 20.5996C31.7787 21.5897 31.4548 22.4087 30.807 23.0565C30.1592 23.7043 29.3408 24.0276 28.352 24.0263C27.8639 24.0263 27.3879 23.9522 26.9239 23.8038C26.4599 23.6555 26.0422 23.3956 25.6707 23.0242L22.0329 19.3997L13.8217 27.609C13.6303 27.8017 13.4864 28.0204 13.39 28.265C13.2937 28.5097 13.2455 28.7569 13.2455 29.0067C13.2455 29.4554 13.3894 29.825 13.6772 30.1153C13.9637 30.4069 14.3314 30.5527 14.7801 30.5527C15.0286 30.5527 15.2834 30.4969 15.5446 30.3853C15.8057 30.2725 16.0168 30.1356 16.1778 29.9746L22.2041 23.9484L23.5504 25.2947L17.5337 31.3228C17.341 31.5143 17.1965 31.7323 17.1001 31.977C17.005 32.2229 16.9575 32.4701 16.9575 32.7186C16.9575 33.1433 17.1071 33.5053 17.4063 33.8045C17.7055 34.1036 18.0674 34.2539 18.4921 34.2551C18.7406 34.2551 18.9954 34.1987 19.2565 34.0859C19.5177 33.9731 19.7288 33.8368 19.8898 33.677L26.3553 27.2229L27.7016 28.5674L21.2456 35.0329C21.077 35.1939 20.9388 35.405 20.8311 35.6661C20.7221 35.9273 20.6676 36.1821 20.6676 36.4306C20.6676 36.854 20.8178 37.2153 21.1182 37.5145C21.4174 37.8162 21.7794 37.9671 22.2041 37.9671C22.4525 37.9671 22.6997 37.9189 22.9457 37.8226C23.1916 37.7262 23.4097 37.5817 23.5998 37.389L30.0654 30.933L31.4117 32.2794L24.9462 38.7449C24.7548 38.9376 24.6109 39.1689 24.5145 39.439C24.4182 39.709 24.37 39.9556 24.37 40.1787C24.37 40.6275 24.5278 40.9894 24.8435 41.2645C25.1592 41.5396 25.5167 41.6772 25.916 41.6772M25.9046 43.5788C24.9272 43.5788 24.0905 43.2213 23.3945 42.5063C22.6985 41.79 22.393 40.9064 22.4779 39.8554C21.4003 39.8681 20.5034 39.5467 19.7871 38.8913C19.0708 38.2346 18.7304 37.3193 18.7659 36.1453C17.592 36.158 16.6665 35.8221 15.9896 35.1375C15.3126 34.4529 15.0045 33.5515 15.0654 32.4334C14.0081 32.4461 13.1232 32.1481 12.4107 31.5396C11.6995 30.9336 11.3439 30.0893 11.3439 29.0067C11.3439 28.5186 11.4384 28.0305 11.6272 27.5424C11.8161 27.0531 12.095 26.6233 12.464 26.2531L22.0329 16.6956L26.9429 21.6056C27.1039 21.7742 27.3029 21.913 27.54 22.022C27.7771 22.131 28.0439 22.1849 28.3406 22.1836C28.7475 22.1836 29.1069 22.0417 29.4188 21.7577C29.7307 21.4737 29.8872 21.1035 29.8885 20.6471C29.8885 20.3505 29.834 20.0843 29.725 19.8485C29.6159 19.6114 29.4778 19.4124 29.3104 19.2513L22.7688 12.7098C22.2972 12.2318 21.8073 11.8813 21.2989 11.6582C20.7905 11.4351 20.234 11.3235 19.6293 11.3235C19.0322 11.3235 18.4896 11.4351 18.0015 11.6582C17.5147 11.8813 17.0323 12.2318 16.5543 12.7098L10.7658 18.5097C10.3576 18.9154 10.028 19.4003 9.77697 19.9645C9.52595 20.5273 9.39284 21.1086 9.37763 21.7082C9.36495 22.138 9.40172 22.5507 9.48792 22.9462C9.57413 23.3417 9.71358 23.7145 9.90628 24.0644L8.46485 25.5058C8.14538 24.9961 7.89563 24.4092 7.71561 23.7449C7.53559 23.0806 7.45256 22.4023 7.4665 21.7101C7.48171 20.8455 7.65476 20.0183 7.98564 19.2285C8.31652 18.4387 8.79066 17.7345 9.40805 17.1158L15.1605 11.3634C15.8235 10.7067 16.5252 10.2187 17.2656 9.89918C18.0059 9.58098 18.8065 9.42188 19.6673 9.42188C20.5281 9.42188 21.3217 9.58161 22.0481 9.90108C22.7758 10.2193 23.468 10.7067 24.1247 11.3634L25.7791 13.0197L27.4373 11.3634C28.1003 10.7067 28.7957 10.2187 29.5234 9.89918C30.2511 9.58098 31.0453 9.42188 31.9061 9.42188C32.7669 9.42188 33.5675 9.58161 34.3079 9.90108C35.047 10.2193 35.7442 10.7067 36.3997 11.3634L43.4851 18.447C44.1405 19.1024 44.6464 19.8383 45.0026 20.6547C45.3588 21.4712 45.5363 22.3098 45.535 23.1706C45.535 24.0327 45.3576 24.8269 45.0026 25.5533C44.6476 26.2797 44.1418 26.9719 43.4851 27.6299L28.6582 42.4435C28.2639 42.8391 27.8341 43.1268 27.3689 43.3068C26.9049 43.4869 26.4168 43.5769 25.9046 43.5769" fill="#6A7ADA"/>
</svg>
