<svg width="27" height="28" viewBox="0 0 27 28" fill="none" xmlns="http://www.w3.org/2000/svg">
<path d="M20.25 2.75C19.2375 2.75 18 3.875 18 5H9C9 3.875 7.7625 2.75 6.75 2.75H2.25V12.875C2.25 14 3.375 15.125 4.5 15.125H6.975C7.425 17.375 8.8875 19.2875 12.375 19.625V21.965C9 22.4825 9 25.25 9 25.25H18C18 25.25 18 22.4825 14.625 21.965V19.625C18.1125 19.2875 19.575 17.375 20.025 15.125H22.5C23.625 15.125 24.75 14 24.75 12.875V2.75H20.25ZM6.75 12.875H4.5V5H6.75V12.875ZM18 13.4375C18 15.6088 17.3475 17.375 13.5 17.375C9.66375 17.375 9 15.6088 9 13.4375V7.25H18V13.4375ZM22.5 12.875H20.25V5H22.5V12.875Z" fill="white"/>
</svg>
