<svg width="27" height="28" viewBox="0 0 27 28" fill="none" xmlns="http://www.w3.org/2000/svg">
<path d="M6.75001 13.1499C7.59871 13.1499 8.41264 12.8128 9.01275 12.2126C9.61287 11.6125 9.95001 10.7986 9.95001 9.9499C9.95001 9.10121 9.61287 8.28728 9.01275 7.68716C8.41264 7.08704 7.59871 6.7499 6.75001 6.7499C5.90132 6.7499 5.08739 7.08704 4.48727 7.68716C3.88715 8.28728 3.55001 9.10121 3.55001 9.9499C3.55001 10.7986 3.88715 11.6125 4.48727 12.2126C5.08739 12.8128 5.90132 13.1499 6.75001 13.1499ZM8.10854 13.2297C7.67783 13.4081 7.21621 13.4999 6.75001 13.4999C5.80849 13.4999 4.90554 13.1259 4.23978 12.4601C3.57403 11.7944 3.20001 10.8914 3.20001 9.9499C3.20001 9.00838 3.57403 8.10543 4.23978 7.43967C4.90554 6.77392 5.80849 6.3999 6.75001 6.3999C7.21621 6.3999 7.67783 6.49173 8.10854 6.67013C8.53924 6.84853 8.93059 7.11003 9.26024 7.43967C9.58989 7.76932 9.85138 8.16067 10.0298 8.59138C10.2082 9.02208 10.3 9.48371 10.3 9.9499C10.3 10.4161 10.2082 10.8777 10.0298 11.3084C9.85138 11.7391 9.58989 12.1305 9.26024 12.4601C8.93059 12.7898 8.53924 13.0513 8.10854 13.2297Z" fill="white" stroke="white"/>
<path d="M4.84892 12.8627L4.84982 12.8636C4.86611 12.8798 4.87904 12.8991 4.88787 12.9204C4.89669 12.9416 4.90123 12.9644 4.90123 12.9875C4.90123 13.0105 4.89669 13.0333 4.88787 13.0545L5.34969 13.2462L4.88787 13.0545C4.87904 13.0758 4.86611 13.0951 4.84982 13.1114L4.39359 13.5662L4.39302 13.5668C3.42117 14.5389 2.87515 15.8572 2.87502 17.2318V17.2319V19.7375C2.87502 19.7839 2.85659 19.8284 2.82377 19.8612C2.79095 19.894 2.74644 19.9125 2.70002 19.9125C2.65361 19.9125 2.6091 19.894 2.57628 19.8612C2.54346 19.8284 2.52502 19.7839 2.52502 19.7375V17.2319C2.52502 17.2319 2.52502 17.2319 2.52502 17.2319C2.52522 15.7644 3.10819 14.3571 4.14575 13.3194L4.14625 13.3189L4.60113 12.8627C4.61738 12.8464 4.63669 12.8334 4.65795 12.8246C4.67921 12.8158 4.70201 12.8113 4.72502 12.8113C4.74804 12.8113 4.77084 12.8158 4.7921 12.8246C4.81336 12.8334 4.83267 12.8464 4.84892 12.8627ZM21.4752 12.4586L21.4761 12.4577C21.4924 12.4414 21.5117 12.4284 21.533 12.4196C21.5542 12.4108 21.577 12.4062 21.6 12.4062C21.623 12.4062 21.6458 12.4108 21.6671 12.4196C21.6883 12.4284 21.7076 12.4413 21.7238 12.4576C21.7239 12.4576 21.7239 12.4576 21.7239 12.4577L22.1788 12.9139L22.1793 12.9144C23.2169 13.9521 23.7998 15.3594 23.8 16.8269C23.8 16.8269 23.8 16.8269 23.8 16.8269V19.7375C23.8 19.7839 23.7816 19.8284 23.7488 19.8612C23.716 19.894 23.6714 19.9125 23.625 19.9125C23.5786 19.9125 23.5341 19.894 23.5013 19.8612C23.4685 19.8284 23.45 19.7839 23.45 19.7375V16.8269V16.8268C23.4499 15.4522 22.9039 14.1339 21.932 13.1618L21.9315 13.1612L21.4752 12.7064C21.4752 12.7063 21.4752 12.7063 21.4752 12.7063C21.4589 12.69 21.446 12.6708 21.4372 12.6495C21.4284 12.6283 21.4238 12.6055 21.4238 12.5825C21.4238 12.5594 21.4284 12.5366 21.4372 12.5154C21.446 12.4941 21.4589 12.4748 21.4752 12.4586Z" fill="white" stroke="white"/>
<path d="M21.1628 7.68716L20.8092 8.04071L21.1628 7.68716C20.5627 7.08704 19.7487 6.7499 18.9 6.7499C18.0513 6.7499 17.2374 7.08704 16.6373 7.68716L16.9908 8.04071L16.6373 7.68716C16.0372 8.28728 15.7 9.10121 15.7 9.9499C15.7 10.7986 16.0372 11.6125 16.6373 12.2126C17.2374 12.8128 18.0513 13.1499 18.9 13.1499C19.7487 13.1499 20.5627 12.8128 21.1628 12.2126C21.7629 11.6125 22.1 10.7986 22.1 9.9499C22.1 9.10121 21.7629 8.28728 21.1628 7.68716ZM18.9 13.4999C18.4338 13.4999 17.9722 13.4081 17.5415 13.2297C17.1108 13.0513 16.7195 12.7898 16.3898 12.4601C16.0602 12.1305 15.7987 11.7391 15.6203 11.3084C15.4419 10.8777 15.35 10.4161 15.35 9.9499C15.35 9.48371 15.4419 9.02208 15.6203 8.59138C15.7987 8.16067 16.0602 7.76932 16.3898 7.43967C16.7195 7.11003 17.1108 6.84853 17.5415 6.67013C17.9722 6.49173 18.4338 6.3999 18.9 6.3999C19.8416 6.3999 20.7445 6.77392 21.4103 7.43967C22.076 8.10543 22.45 9.00838 22.45 9.9499C22.45 10.8914 22.076 11.7944 21.4103 12.4601C20.7445 13.1259 19.8416 13.4999 18.9 13.4999ZM12.825 17.8874C11.7973 17.8874 10.8117 18.2957 10.085 19.0224C9.35829 19.7491 8.95004 20.7347 8.95004 21.7624V23.5174C8.95004 23.5638 8.9316 23.6083 8.89878 23.6411C8.86596 23.674 8.82145 23.6924 8.77504 23.6924C8.72862 23.6924 8.68411 23.674 8.65129 23.6411C8.61847 23.6083 8.60004 23.5638 8.60004 23.5174V21.7624C8.60004 20.6419 9.04517 19.5672 9.83751 18.7749C10.6299 17.9825 11.7045 17.5374 12.825 17.5374C13.9456 17.5374 15.0202 17.9825 15.8126 18.7749C16.6049 19.5672 17.05 20.6419 17.05 21.7624V23.5174C17.05 23.5638 17.0316 23.6083 16.9988 23.6411C16.966 23.674 16.9215 23.6924 16.875 23.6924C16.8286 23.6924 16.7841 23.674 16.7513 23.6411C16.7185 23.6083 16.7 23.5638 16.7 23.5174V21.7624C16.7 21.2535 16.5998 20.7496 16.4051 20.2795C16.2103 19.8094 15.9249 19.3822 15.5651 19.0224C15.2052 18.6625 14.7781 18.3771 14.3079 18.1824C13.8378 17.9876 13.3339 17.8874 12.825 17.8874Z" fill="white" stroke="white"/>
<path d="M12.825 16.8623C13.6737 16.8623 14.4876 16.5252 15.0878 15.925C15.6879 15.3249 16.025 14.511 16.025 13.6623C16.025 12.8136 15.6879 11.9997 15.0878 11.3996C14.4876 10.7994 13.6737 10.4623 12.825 10.4623C11.9763 10.4623 11.1624 10.7994 10.5623 11.3996C9.96217 11.9997 9.62502 12.8136 9.62502 13.6623C9.62502 14.511 9.96217 15.3249 10.5623 15.925C11.1624 16.5252 11.9763 16.8623 12.825 16.8623ZM15.3353 16.1725C14.6695 16.8383 13.7665 17.2123 12.825 17.2123C11.8835 17.2123 10.9805 16.8383 10.3148 16.1725C9.64904 15.5068 9.27502 14.6038 9.27502 13.6623C9.27502 12.7208 9.64904 11.8178 10.3148 11.1521C10.9805 10.4863 11.8835 10.1123 12.825 10.1123C13.7665 10.1123 14.6695 10.4863 15.3353 11.1521C16.001 11.8178 16.375 12.7208 16.375 13.6623C16.375 14.6038 16.001 15.5068 15.3353 16.1725Z" fill="white" stroke="white"/>
</svg>
