<svg width="22" height="27" viewBox="0 0 22 27" fill="none" xmlns="http://www.w3.org/2000/svg">
<path d="M0.0395649 17.828C-0.269401 20.2997 1.27543 21.2266 3.12922 21.2266C7.76371 21.3296 16.3393 21.2266 18.5775 21.2266C20.1223 21.2266 22.0774 19.6818 21.8217 17.828C21.2037 13.348 19.661 5.63163 19.1954 3.92449C18.732 2.22519 17.0327 0.834842 15.0244 0.525879C12.9646 0.319902 8.96868 0.278692 6.37336 0.525865C3.77805 0.773038 2.97474 2.39783 2.66577 3.92449C2.10301 6.70519 0.238842 16.2337 0.0395649 17.828Z" fill="white"/>
<path d="M20.7403 22.4624H0.657532C1.42995 24.6252 2.66581 26.7879 4.05616 26.7879H17.0327C19.041 26.7879 20.1224 24.4707 20.7403 22.4624Z" fill="white"/>
<rect x="5.60095" y="3.30652" width="10.8138" height="4.63449" rx="1.23586" fill="#6A7ADA"/>
<rect x="9.30853" y="10.4127" width="3.39862" height="1.23586" rx="0.617932" fill="#6A7ADA"/>
<path fill-rule="evenodd" clip-rule="evenodd" d="M7.42885 13.2193C7.29589 12.5013 6.6664 11.9575 5.9099 11.9575C5.1534 11.9575 4.5239 12.5013 4.39094 13.2193C3.67296 13.3523 3.12921 13.9817 3.12921 14.7382C3.12921 15.4947 3.67297 16.1242 4.39096 16.2572C4.52394 16.9752 5.15342 17.5189 5.9099 17.5189C6.66637 17.5189 7.29585 16.9752 7.42884 16.2572C8.14685 16.1242 8.69063 15.4947 8.69063 14.7382C8.69063 13.9817 8.14686 13.3522 7.42885 13.2193Z" fill="#6A7ADA"/>
<circle cx="16.1058" cy="14.7382" r="2.78069" fill="#6A7ADA"/>
<circle cx="16.1058" cy="13.5023" r="0.617932" fill="white"/>
<circle cx="17.3417" cy="14.7382" r="0.617932" fill="white"/>
<circle cx="16.1058" cy="15.974" r="0.617932" fill="white"/>
<circle cx="14.8699" cy="14.7382" r="0.617932" fill="white"/>
</svg>
