<svg width="28" height="26" viewBox="0 0 28 26" fill="none" xmlns="http://www.w3.org/2000/svg">
<path d="M13.5702 24.1667C13.7531 24.1667 13.9406 24.1257 14.1327 24.0436C14.3249 23.9615 14.4802 23.8612 14.5987 23.7427L25.5077 12.8324C25.8594 12.4807 26.1308 12.1215 26.3221 11.7549C26.5124 11.3864 26.6075 10.9825 26.6075 10.5431C26.6075 10.0981 26.5124 9.66619 26.3221 9.24733C26.1308 8.82754 25.8594 8.44506 25.5077 8.0999L20.2603 2.8525C19.9142 2.50081 19.5583 2.24287 19.1926 2.07869C18.8279 1.9145 18.423 1.83241 17.978 1.83241C17.5386 1.83241 17.1305 1.9145 16.7536 2.07869C16.3768 2.24287 16.0218 2.50035 15.6888 2.85111L14.4686 4.0713L17.0573 6.66701C17.3353 6.94034 17.5428 7.25099 17.68 7.59895C17.8162 7.94691 17.8843 8.3 17.8843 8.65822C17.8843 9.3868 17.6459 9.98943 17.1692 10.4661C16.6925 10.9428 16.0904 11.1807 15.3627 11.1798C15.0036 11.1798 14.6533 11.1252 14.3118 11.0161C13.9704 10.9069 13.663 10.7157 13.3897 10.4423L10.7128 7.77526L4.67063 13.8161C4.52976 13.9579 4.42388 14.1188 4.35299 14.2988C4.28209 14.4789 4.24664 14.6608 4.24664 14.8446C4.24664 15.1748 4.35252 15.4467 4.56428 15.6603C4.77511 15.8749 5.04564 15.9822 5.37588 15.9822C5.55872 15.9822 5.74623 15.9411 5.9384 15.859C6.13057 15.776 6.28589 15.6753 6.40437 15.5568L10.8388 11.1224L11.8295 12.1131L7.40207 16.5489C7.26028 16.6898 7.15393 16.8502 7.08303 17.0303C7.01307 17.2112 6.97808 17.3932 6.97808 17.576C6.97808 17.8885 7.08816 18.1548 7.30832 18.375C7.52848 18.5952 7.79481 18.7057 8.10732 18.7066C8.29016 18.7066 8.47767 18.6651 8.66984 18.5821C8.86201 18.4991 9.01734 18.3988 9.13581 18.2812L13.8934 13.532L14.8842 14.5213L10.1335 19.2789C10.0094 19.3974 9.90776 19.5527 9.82847 19.7449C9.74824 19.9371 9.70813 20.1246 9.70813 20.3074C9.70813 20.619 9.81867 20.8849 10.0398 21.105C10.2599 21.3271 10.5263 21.4381 10.8388 21.4381C11.0216 21.4381 11.2035 21.4026 11.3845 21.3317C11.5655 21.2608 11.7259 21.1545 11.8659 21.0127L16.6235 16.262L17.6142 17.2528L12.8566 22.0104C12.7157 22.1522 12.6098 22.3224 12.5389 22.5211C12.468 22.7198 12.4326 22.9013 12.4326 23.0655C12.4326 23.3957 12.5487 23.662 12.781 23.8645C13.0133 24.0669 13.2764 24.1681 13.5702 24.1681M13.5618 25.5674C12.8426 25.5674 12.2269 25.3044 11.7147 24.7782C11.2026 24.2511 10.9778 23.6009 11.0403 22.8276C10.2473 22.8369 9.58732 22.6004 9.06025 22.1181C8.53318 21.6349 8.2827 20.9614 8.30882 20.0975C7.44498 20.1069 6.76399 19.8597 6.26584 19.3559C5.76768 18.8522 5.541 18.1889 5.58577 17.3661C4.80776 17.3754 4.15662 17.1562 3.63234 16.7084C3.109 16.2625 2.84733 15.6412 2.84733 14.8446C2.84733 14.4854 2.91683 14.1262 3.05583 13.7671C3.19483 13.407 3.40006 13.0908 3.67152 12.8184L10.7128 5.78545L14.3258 9.39845C14.4443 9.52253 14.5908 9.62468 14.7652 9.7049C14.9397 9.78513 15.136 9.82478 15.3543 9.82384C15.6538 9.82384 15.9182 9.71936 16.1477 9.5104C16.3772 9.30144 16.4924 9.02904 16.4934 8.69321C16.4934 8.47491 16.4532 8.27901 16.373 8.1055C16.2928 7.93105 16.1911 7.78459 16.068 7.66611L11.2544 2.8525C10.9073 2.50081 10.5468 2.24287 10.1727 2.07869C9.79862 1.9145 9.38909 1.83241 8.94411 1.83241C8.50473 1.83241 8.10546 1.9145 7.7463 2.07869C7.38808 2.24287 7.03312 2.50081 6.68143 2.8525L2.42194 7.12039C2.12156 7.41891 1.87901 7.77573 1.6943 8.19085C1.5096 8.60505 1.41165 9.03277 1.40045 9.47402C1.39112 9.79026 1.41818 10.0939 1.48161 10.385C1.54505 10.676 1.64766 10.9503 1.78946 11.2078L0.728784 12.2684C0.493701 11.8934 0.309925 11.4615 0.177458 10.9727C0.0449901 10.4838 -0.0161129 9.98476 -0.00585137 9.47542C0.00534308 8.8392 0.13268 8.2305 0.376159 7.64932C0.619638 7.06814 0.968532 6.54994 1.42284 6.0947L5.65574 1.8618C6.14363 1.37857 6.65997 1.01941 7.20477 0.784331C7.74957 0.550181 8.33868 0.433105 8.97209 0.433105C9.60551 0.433105 10.1895 0.550647 10.724 0.785731C11.2595 1.01988 11.7688 1.37857 12.2521 1.8618L13.4695 3.08059L14.6897 1.8618C15.1775 1.37857 15.6892 1.01941 16.2247 0.784331C16.7602 0.550181 17.3446 0.433105 17.978 0.433105C18.6114 0.433105 19.2006 0.550647 19.7453 0.785731C20.2892 1.01988 20.8023 1.37857 21.2846 1.8618L26.4984 7.07421C26.9807 7.5565 27.3529 8.09803 27.615 8.6988C27.8772 9.29957 28.0078 9.91667 28.0068 10.5501C28.0068 11.1844 27.8762 11.7689 27.615 12.3034C27.3538 12.8379 26.9816 13.3473 26.4984 13.8315L15.588 24.732C15.2979 25.0231 14.9816 25.2349 14.6393 25.3673C14.2978 25.4998 13.9387 25.566 13.5618 25.566" fill="white"/>
</svg>
