<svg width="27" height="28" viewBox="0 0 27 28" fill="none" xmlns="http://www.w3.org/2000/svg">
<g clip-path="url(#clip0_110_1757)">
<path d="M17.5562 2.54548C17.5123 2.55341 17.469 2.56417 17.4264 2.57767H1.03847C1.00595 2.57614 0.973377 2.57614 0.940856 2.57767C0.682692 2.60205 0.442987 2.72213 0.268879 2.9143C0.0947722 3.10647 -0.00113776 3.35683 1.01868e-05 3.61614V20.1993C1.01868e-05 22.6553 1.36974 24.1642 2.66159 24.807C3.95239 25.4498 5.19232 25.4238 5.19232 25.4238H21.9375C22.1192 25.4238 23.1587 25.3968 24.3395 24.807C25.5711 24.1912 26.8598 22.7726 26.9668 20.5233V20.4589C26.9689 20.4361 26.999 20.4174 27 20.3935C27.0042 20.3396 27.0042 20.2854 27 20.2315C27.0015 20.199 27.0015 20.1664 27 20.1339V8.80844C27 8.80844 26.9959 8.07944 26.6106 7.31514C26.2606 6.62248 25.4195 5.86129 24.2419 5.72629C24.1276 5.68331 24.0067 5.66082 23.8846 5.65983H18.6923V3.81033C18.6984 3.74574 18.6984 3.68072 18.6923 3.61614C18.695 3.57291 18.695 3.52955 18.6923 3.48633V3.38975L18.6601 3.32433V3.29214C18.6507 3.25907 18.6396 3.22649 18.6269 3.19452C18.6073 3.1608 18.5858 3.12821 18.5625 3.0969C18.535 3.04005 18.5023 2.98582 18.4649 2.93491C18.434 2.91131 18.4017 2.88946 18.3683 2.86948C18.329 2.82247 18.2855 2.77903 18.2385 2.73967H18.2053C18.0979 2.66359 17.977 2.60861 17.8491 2.57767C17.7535 2.55308 17.6549 2.54224 17.5562 2.54548ZM2.07693 4.6546H16.6154V6.4719C16.5866 6.61096 16.5866 6.75446 16.6154 6.89352V20.2004C16.6154 21.5296 17.037 22.5629 17.6217 23.3479H5.19232C5.19232 23.3479 4.72086 23.35 4.15386 23.1859C3.95261 23.1276 3.75695 23.0515 3.5692 22.9585C2.78413 22.567 2.07693 21.9761 2.07693 20.1993V4.6546ZM4.15386 6.73152C3.58166 6.73152 3.11539 7.19779 3.11539 7.76998V9.84691C3.11539 10.4191 3.58166 10.8854 4.15386 10.8854H14.5385C15.1107 10.8854 15.5769 10.4191 15.5769 9.84691V7.76998C15.5769 7.19779 15.1107 6.73152 14.5385 6.73152H4.15386ZM18.6923 7.73779H20.9645C20.7703 8.30687 20.7692 8.77625 20.7692 8.77625V19.1931C20.7692 19.4685 20.8786 19.7326 21.0734 19.9274C21.2681 20.1221 21.5323 20.2315 21.8077 20.2315C22.0831 20.2315 22.3473 20.1221 22.542 19.9274C22.7368 19.7326 22.8462 19.4685 22.8462 19.1931V8.80844C22.8482 8.77937 22.8721 8.52287 23.0082 8.25702C23.1525 7.97664 23.2252 7.76998 23.8846 7.76998C24.5389 7.76998 24.6147 7.96729 24.7611 8.25702C24.8992 8.53221 24.921 8.81156 24.9231 8.84064V20.2315C24.9216 20.264 24.9216 20.2966 24.9231 20.3291C24.895 21.9782 24.2045 22.5379 23.4298 22.9253C22.6405 23.3199 21.8077 23.3469 21.8077 23.3469C21.8077 23.3469 20.9769 23.3251 20.1846 22.9253C19.3922 22.5255 18.6923 21.9377 18.6923 20.1993V7.73779ZM3.86205 12.9623C3.58663 13.001 3.33787 13.1475 3.17048 13.3696C3.00309 13.5917 2.93079 13.8712 2.96949 14.1467C3.00819 14.4221 3.15471 14.6708 3.37682 14.8382C3.59893 15.0056 3.87844 15.0779 4.15386 15.0392H7.26924C7.54466 15.0392 7.80879 14.9298 8.00354 14.7351C8.19829 14.5403 8.3077 14.2762 8.3077 14.0008C8.3077 13.7253 8.19829 13.4612 8.00354 13.2664C7.80879 13.0717 7.54466 12.9623 7.26924 12.9623H4.15386C4.12134 12.9608 4.08876 12.9608 4.05624 12.9623C4.02372 12.9608 3.99115 12.9608 3.95863 12.9623C3.92645 12.9608 3.89422 12.9608 3.86205 12.9623ZM10.0928 12.9623C9.8174 13.001 9.56864 13.1475 9.40125 13.3696C9.23386 13.5917 9.16156 13.8712 9.20026 14.1467C9.23896 14.4221 9.38548 14.6708 9.60759 14.8382C9.8297 15.0056 10.1092 15.0779 10.3846 15.0392H14.5385C14.8139 15.0392 15.078 14.9298 15.2728 14.7351C15.4675 14.5403 15.5769 14.2762 15.5769 14.0008C15.5769 13.7253 15.4675 13.4612 15.2728 13.2664C15.078 13.0717 14.8139 12.9623 14.5385 12.9623H10.3846C10.3521 12.9608 10.3195 12.9608 10.287 12.9623C10.2545 12.9608 10.2219 12.9608 10.1894 12.9623C10.1572 12.9608 10.125 12.9608 10.0928 12.9623ZM3.86205 16.0777C3.58663 16.1164 3.33787 16.2629 3.17048 16.485C3.00309 16.7071 2.93079 16.9866 2.96949 17.262C3.00819 17.5375 3.15471 17.7862 3.37682 17.9536C3.59893 18.121 3.87844 18.1933 4.15386 18.1546H7.26924C7.54466 18.1546 7.80879 18.0452 8.00354 17.8504C8.19829 17.6557 8.3077 17.3916 8.3077 17.1161C8.3077 16.8407 8.19829 16.5766 8.00354 16.3818C7.80879 16.1871 7.54466 16.0777 7.26924 16.0777H4.15386C4.12134 16.0761 4.08876 16.0761 4.05624 16.0777C4.02372 16.0761 3.99115 16.0761 3.95863 16.0777C3.92645 16.0762 3.89422 16.0762 3.86205 16.0777ZM10.0928 16.0777C9.8174 16.1164 9.56864 16.2629 9.40125 16.485C9.23386 16.7071 9.16156 16.9866 9.20026 17.262C9.23896 17.5375 9.38548 17.7862 9.60759 17.9536C9.8297 18.121 10.1092 18.1933 10.3846 18.1546H14.5385C14.8139 18.1546 15.078 18.0452 15.2728 17.8504C15.4675 17.6557 15.5769 17.3916 15.5769 17.1161C15.5769 16.8407 15.4675 16.5766 15.2728 16.3818C15.078 16.1871 14.8139 16.0777 14.5385 16.0777H10.3846C10.3521 16.0761 10.3195 16.0761 10.287 16.0777C10.2545 16.0761 10.2219 16.0761 10.1894 16.0777C10.1572 16.0762 10.125 16.0762 10.0928 16.0777ZM4.38128 19.1931C4.10586 19.2318 3.8571 19.3783 3.68971 19.6004C3.52232 19.8225 3.45003 20.102 3.48872 20.3774C3.52742 20.6528 3.67394 20.9016 3.89605 21.069C4.11816 21.2364 4.39767 21.3087 4.67309 21.27H7.26924C7.54466 21.27 7.80879 21.1606 8.00354 20.9658C8.19829 20.7711 8.3077 20.5069 8.3077 20.2315C8.3077 19.9561 8.19829 19.692 8.00354 19.4972C7.80879 19.3025 7.54466 19.1931 7.26924 19.1931H4.67309C4.64057 19.1915 4.60799 19.1915 4.57547 19.1931C4.5433 19.1916 4.51107 19.1916 4.4789 19.1931C4.44637 19.1915 4.4138 19.1915 4.38128 19.1931ZM10.0928 19.1931C9.8174 19.2318 9.56864 19.3783 9.40125 19.6004C9.23386 19.8225 9.16156 20.102 9.20026 20.3774C9.23896 20.6528 9.38548 20.9016 9.60759 21.069C9.8297 21.2364 10.1092 21.3087 10.3846 21.27H14.5385C14.8139 21.27 15.078 21.1606 15.2728 20.9658C15.4675 20.7711 15.5769 20.5069 15.5769 20.2315C15.5769 19.9561 15.4675 19.692 15.2728 19.4972C15.078 19.3025 14.8139 19.1931 14.5385 19.1931H10.3846C10.3521 19.1915 10.3195 19.1915 10.287 19.1931C10.2545 19.1915 10.2219 19.1915 10.1894 19.1931C10.1572 19.1916 10.125 19.1916 10.0928 19.1931Z" fill="white"/>
</g>
<defs>
<clipPath id="clip0_110_1757">
<rect width="27" height="27" fill="white" transform="translate(0 0.5)"/>
</clipPath>
</defs>
</svg>
