<svg width="27" height="28" viewBox="0 0 27 28" fill="none" xmlns="http://www.w3.org/2000/svg">
<path d="M8.4375 14H18.5625V15.6875H8.4375V14ZM8.4375 8.9375H18.5625V10.625H8.4375V8.9375Z" fill="white"/>
<path d="M13.5 25.8125L8.28901 23.034C6.80332 22.2438 5.56091 21.0639 4.69517 19.621C3.82942 18.178 3.37303 16.5265 3.37501 14.8438V3.875C3.37501 3.42745 3.5528 2.99822 3.86926 2.68176C4.18573 2.36529 4.61495 2.1875 5.06251 2.1875H21.9375C22.3851 2.1875 22.8143 2.36529 23.1307 2.68176C23.4472 2.99822 23.625 3.42745 23.625 3.875V14.8438C23.627 16.5265 23.1706 18.178 22.3048 19.621C21.4391 21.0639 20.1967 22.2438 18.711 23.034L13.5 25.8125ZM5.06251 3.875V14.8438C5.06157 16.2205 5.43534 17.5715 6.14375 18.752C6.85217 19.9325 7.86851 20.8979 9.08382 21.5448L13.5 23.8997L17.9162 21.5457C19.1316 20.8987 20.1481 19.9332 20.8565 18.7525C21.5649 17.5718 21.9386 16.2206 21.9375 14.8438V3.875H5.06251Z" fill="white"/>
</svg>
