<svg width="27" height="28" viewBox="0 0 27 28" fill="none" xmlns="http://www.w3.org/2000/svg">
<path d="M19.4062 14.8438L21.2878 18.4887L25.3125 19.0625L22.3594 21.7347L23.625 25.8125L19.4062 23.4567L15.1875 25.8125L16.4531 21.7347L13.5 19.0625L17.6344 18.4887L19.4062 14.8438Z" fill="white"/>
<path d="M21.0938 4.71875H18.5625V3.875C18.5612 3.42786 18.3829 2.99941 18.0668 2.68323C17.7506 2.36705 17.3221 2.18884 16.875 2.1875H10.125C9.67786 2.18884 9.24941 2.36705 8.93323 2.68323C8.61705 2.99941 8.43884 3.42786 8.4375 3.875V4.71875H5.90625C5.45911 4.72009 5.03066 4.8983 4.71448 5.21448C4.3983 5.53066 4.22009 5.95911 4.21875 6.40625V24.125C4.22009 24.5721 4.3983 25.0006 4.71448 25.3168C5.03066 25.6329 5.45911 25.8112 5.90625 25.8125H11.8125V24.125H5.90625V6.40625H8.4375V8.9375H18.5625V6.40625H21.0938V12.3125H22.7812V6.40625C22.7799 5.95911 22.6017 5.53066 22.2855 5.21448C21.9693 4.8983 21.5409 4.72009 21.0938 4.71875ZM16.875 7.25H10.125V3.875H16.875V7.25Z" fill="white"/>
</svg>
