<svg width="27" height="28" viewBox="0 0 27 28" fill="none" xmlns="http://www.w3.org/2000/svg">
<g clip-path="url(#clip0_203_4238)">
<path d="M5.01188 2.77813C5.17031 2.5929 5.36699 2.44419 5.58838 2.34223C5.80978 2.24027 6.05063 2.18748 6.29437 2.1875H20.7056C20.9494 2.18748 21.1902 2.24027 21.4116 2.34223C21.633 2.44419 21.8297 2.5929 21.9881 2.77813L26.3908 7.91488C26.7839 8.37359 27 8.95777 27 9.56187V9.99219C27.0001 10.8275 26.7392 11.6419 26.2538 12.3216C25.7684 13.0014 25.0828 13.5125 24.2927 13.7836C23.5026 14.0546 22.6476 14.072 21.8472 13.8334C21.0467 13.5948 20.3408 13.112 19.8281 12.4526C19.4538 12.9349 18.9741 13.3251 18.4256 13.5934C17.8772 13.8616 17.2746 14.0007 16.6641 14C16.0535 14.0007 15.451 13.8616 14.9025 13.5934C14.3541 13.3251 13.8743 12.9349 13.5 12.4526C13.1257 12.9349 12.6459 13.3251 12.0975 13.5934C11.549 13.8616 10.9465 14.0007 10.3359 14C9.72541 14.0007 9.12283 13.8616 8.57438 13.5934C8.02594 13.3251 7.54618 12.9349 7.17188 12.4526C6.6592 13.112 5.9533 13.5948 5.15284 13.8334C4.35239 14.072 3.49737 14.0546 2.7073 13.7836C1.91722 13.5125 1.23158 13.0014 0.746183 12.3216C0.260789 11.6419 -9.21351e-05 10.8275 2.44089e-08 9.99219V9.56187C2.12752e-05 8.95777 0.216096 8.37359 0.609187 7.91488L5.01188 2.77813ZM8.01562 9.99219C8.01562 10.6076 8.26009 11.1978 8.69523 11.6329C9.13037 12.068 9.72055 12.3125 10.3359 12.3125C10.9513 12.3125 11.5415 12.068 11.9766 11.6329C12.4118 11.1978 12.6562 10.6076 12.6562 9.99219C12.6562 9.76841 12.7451 9.5538 12.9034 9.39557C13.0616 9.23733 13.2762 9.14844 13.5 9.14844C13.7238 9.14844 13.9384 9.23733 14.0966 9.39557C14.2549 9.5538 14.3438 9.76841 14.3438 9.99219C14.3438 10.6076 14.5882 11.1978 15.0234 11.6329C15.4585 12.068 16.0487 12.3125 16.6641 12.3125C17.2794 12.3125 17.8696 12.068 18.3048 11.6329C18.7399 11.1978 18.9844 10.6076 18.9844 9.99219C18.9844 9.76841 19.0733 9.5538 19.2315 9.39557C19.3897 9.23733 19.6043 9.14844 19.8281 9.14844C20.0519 9.14844 20.2665 9.23733 20.4247 9.39557C20.583 9.5538 20.6719 9.76841 20.6719 9.99219C20.6719 10.6076 20.9163 11.1978 21.3515 11.6329C21.7866 12.068 22.3768 12.3125 22.9922 12.3125C23.6076 12.3125 24.1978 12.068 24.6329 11.6329C25.068 11.1978 25.3125 10.6076 25.3125 9.99219V9.56187C25.3125 9.36077 25.2407 9.16628 25.11 9.01344L20.7056 3.875H6.29437L1.89 9.01344C1.7593 9.16628 1.68748 9.36077 1.6875 9.56187V9.99219C1.6875 10.6076 1.93196 11.1978 2.3671 11.6329C2.80225 12.068 3.39243 12.3125 4.00781 12.3125C4.6232 12.3125 5.21338 12.068 5.64852 11.6329C6.08366 11.1978 6.32812 10.6076 6.32812 9.99219C6.32812 9.76841 6.41702 9.5538 6.57525 9.39557C6.73349 9.23733 6.9481 9.14844 7.17188 9.14844C7.39565 9.14844 7.61026 9.23733 7.7685 9.39557C7.92673 9.5538 8.01562 9.76841 8.01562 9.99219ZM2.53125 14.8438C2.75503 14.8438 2.96964 14.9326 3.12787 15.0909C3.28611 15.2491 3.375 15.4637 3.375 15.6875V25.8125H23.625V15.6875C23.625 15.4637 23.7139 15.2491 23.8721 15.0909C24.0304 14.9326 24.245 14.8438 24.4688 14.8438C24.6925 14.8438 24.9071 14.9326 25.0654 15.0909C25.2236 15.2491 25.3125 15.4637 25.3125 15.6875V25.8125H26.1562C26.38 25.8125 26.5946 25.9014 26.7529 26.0596C26.9111 26.2179 27 26.4325 27 26.6562C27 26.88 26.9111 27.0946 26.7529 27.2529C26.5946 27.4111 26.38 27.5 26.1562 27.5H0.84375C0.619974 27.5 0.405363 27.4111 0.247129 27.2529C0.0888949 27.0946 2.44089e-08 26.88 2.44089e-08 26.6562C2.44089e-08 26.4325 0.0888949 26.2179 0.247129 26.0596C0.405363 25.9014 0.619974 25.8125 0.84375 25.8125H1.6875V15.6875C1.6875 15.4637 1.77639 15.2491 1.93463 15.0909C2.09286 14.9326 2.30747 14.8438 2.53125 14.8438ZM5.90625 15.6875C6.13003 15.6875 6.34464 15.7764 6.50287 15.9346C6.66111 16.0929 6.75 16.3075 6.75 16.5312V22.4375H20.25V16.5312C20.25 16.3075 20.3389 16.0929 20.4971 15.9346C20.6554 15.7764 20.87 15.6875 21.0938 15.6875C21.3175 15.6875 21.5321 15.7764 21.6904 15.9346C21.8486 16.0929 21.9375 16.3075 21.9375 16.5312V22.4375C21.9375 22.8851 21.7597 23.3143 21.4432 23.6307C21.1268 23.9472 20.6976 24.125 20.25 24.125H6.75C6.30245 24.125 5.87322 23.9472 5.55676 23.6307C5.24029 23.3143 5.0625 22.8851 5.0625 22.4375V16.5312C5.0625 16.3075 5.15139 16.0929 5.30963 15.9346C5.46786 15.7764 5.68247 15.6875 5.90625 15.6875Z" fill="white"/>
</g>
<defs>
<clipPath id="clip0_203_4238">
<rect width="27" height="27" fill="white" transform="translate(0 0.5)"/>
</clipPath>
</defs>
</svg>
