<svg width="27" height="28" viewBox="0 0 27 28" fill="none" xmlns="http://www.w3.org/2000/svg">
<path d="M16.875 24.1249H10.125M16.875 24.1249V14.6749C16.875 14.4959 16.8039 14.3242 16.6773 14.1976C16.5507 14.071 16.379 13.9999 16.2 13.9999H10.8C10.621 13.9999 10.4493 14.071 10.3227 14.1976C10.1961 14.3242 10.125 14.4959 10.125 14.6749V24.1249M16.875 24.1249H22.95C23.129 24.1249 23.3007 24.0538 23.4273 23.9272C23.5539 23.8006 23.625 23.6289 23.625 23.4499V20.8624C23.625 20.6834 23.5539 20.5117 23.4273 20.3851C23.3007 20.2585 23.129 20.1874 22.95 20.1874H17.55C17.371 20.1874 17.1993 20.2585 17.0727 20.3851C16.9461 20.5117 16.875 20.6834 16.875 20.8624V24.1249ZM10.125 24.1249V18.6124C10.125 18.4334 10.0539 18.2617 9.9273 18.1351C9.80071 18.0085 9.62902 17.9374 9.45 17.9374H4.05C3.87098 17.9374 3.69929 18.0085 3.5727 18.1351C3.44612 18.2617 3.375 18.4334 3.375 18.6124V23.4499C3.375 23.6289 3.44612 23.8006 3.5727 23.9272C3.69929 24.0538 3.87098 24.1249 4.05 24.1249H10.125ZM12.1567 6.25202L13.1794 4.08415C13.207 4.02217 13.252 3.96953 13.3089 3.93258C13.3658 3.89564 13.4322 3.87598 13.5 3.87598C13.5678 3.87598 13.6342 3.89564 13.6911 3.93258C13.748 3.96953 13.793 4.02217 13.8206 4.08415L14.8444 6.25202L17.1304 6.6019C17.424 6.6469 17.541 7.0249 17.3284 7.2409L15.6746 8.9284L16.065 11.3111C16.1145 11.6171 15.8085 11.8511 15.5452 11.706L13.5 10.581L11.4548 11.706C11.1926 11.85 10.8855 11.6171 10.935 11.3111L11.3254 8.9284L9.67163 7.2409C9.45788 7.0249 9.576 6.6469 9.8685 6.6019L12.1567 6.25202Z" stroke="white" stroke-width="1.5" stroke-linecap="round" stroke-linejoin="round"/>
</svg>
