<svg width="27" height="28" viewBox="0 0 27 28" fill="none" xmlns="http://www.w3.org/2000/svg">
<path d="M3.375 23H23.625V14C23.625 13.1049 23.2694 12.2464 22.6365 11.6135C22.0036 10.9806 21.1451 10.625 20.25 10.625H6.75C5.85489 10.625 4.99645 10.9806 4.36351 11.6135C3.73058 12.2464 3.375 13.1049 3.375 14V23Z" stroke="black" stroke-width="2" stroke-linecap="round" stroke-linejoin="round"/>
<path d="M3.375 17.1534C3.72981 17.3069 4.11346 17.3825 4.5 17.375C4.93818 17.3842 5.37201 17.2865 5.76402 17.0905C6.15603 16.8945 6.49443 16.6061 6.75 16.25C7.00557 15.8939 7.34397 15.6055 7.73598 15.4095C8.12799 15.2135 8.56182 15.1158 9 15.125C9.43818 15.1158 9.87201 15.2135 10.264 15.4095C10.656 15.6055 10.9944 15.8939 11.25 16.25C11.5056 16.6061 11.844 16.8945 12.236 17.0905C12.628 17.2865 13.0618 17.3842 13.5 17.375C13.9382 17.3842 14.372 17.2865 14.764 17.0905C15.156 16.8945 15.4944 16.6061 15.75 16.25C16.0056 15.8939 16.344 15.6055 16.736 15.4095C17.128 15.2135 17.5618 15.1158 18 15.125C18.4382 15.1158 18.872 15.2135 19.264 15.4095C19.656 15.6055 19.9944 15.8939 20.25 16.25C20.5056 16.6061 20.844 16.8945 21.236 17.0905C21.628 17.2865 22.0618 17.3842 22.5 17.375C22.8937 17.3829 23.2785 17.3053 23.625 17.1534M13.5 5L15.1481 6.84275C15.4422 7.15891 15.6391 7.55302 15.7153 7.97804C15.7916 8.40306 15.7439 8.84104 15.578 9.23969C15.4121 9.63835 15.135 9.98085 14.7797 10.2263C14.4245 10.4718 14.0061 10.6098 13.5745 10.624C13.143 10.6382 12.7164 10.5279 12.3458 10.3062C11.9753 10.0846 11.6763 9.76102 11.4846 9.37411C11.2929 8.98719 11.2166 8.55329 11.2647 8.12418C11.3129 7.69508 11.4835 7.2889 11.7562 6.95412L13.5 5Z" stroke="black" stroke-width="2" stroke-linecap="round" stroke-linejoin="round"/>
</svg>
