<svg width="27" height="28" viewBox="0 0 27 28" fill="none" xmlns="http://www.w3.org/2000/svg">
<path d="M6.75001 13.15C7.59871 13.15 8.41264 12.8129 9.01275 12.2128C9.61287 11.6126 9.95001 10.7987 9.95001 9.95002C9.95001 9.10133 9.61287 8.2874 9.01275 7.68728C8.41264 7.08717 7.59871 6.75002 6.75001 6.75002C5.90132 6.75002 5.08739 7.08717 4.48727 7.68728C3.88715 8.2874 3.55001 9.10133 3.55001 9.95002C3.55001 10.7987 3.88715 11.6126 4.48727 12.2128C5.08739 12.8129 5.90132 13.15 6.75001 13.15ZM8.10854 13.2298C7.67783 13.4082 7.21621 13.5 6.75001 13.5C5.80849 13.5 4.90554 13.126 4.23978 12.4603C3.57403 11.7945 3.20001 10.8915 3.20001 9.95002C3.20001 9.00851 3.57403 8.10555 4.23978 7.4398C4.90554 6.77404 5.80849 6.40002 6.75001 6.40002C7.21621 6.40002 7.67783 6.49185 8.10854 6.67025C8.53924 6.84866 8.93059 7.11015 9.26024 7.4398C9.58989 7.76944 9.85138 8.16079 10.0298 8.5915C10.2082 9.0222 10.3 9.48383 10.3 9.95002C10.3 10.4162 10.2082 10.8778 10.0298 11.3086C9.85138 11.7393 9.58989 12.1306 9.26024 12.4603C8.93059 12.7899 8.53924 13.0514 8.10854 13.2298Z" fill="black" stroke="black"/>
<path d="M4.84892 12.8628L4.84982 12.8637C4.86611 12.8799 4.87904 12.8992 4.88787 12.9205C4.89669 12.9418 4.90123 12.9646 4.90123 12.9876C4.90123 13.0106 4.89669 13.0334 4.88787 13.0546L5.34969 13.2463L4.88787 13.0546C4.87904 13.0759 4.86611 13.0952 4.84982 13.1115L4.39359 13.5664L4.39302 13.5669C3.42117 14.539 2.87515 15.8573 2.87502 17.2319V17.232V19.7376C2.87502 19.784 2.85659 19.8285 2.82377 19.8613C2.79095 19.8941 2.74644 19.9126 2.70002 19.9126C2.65361 19.9126 2.6091 19.8941 2.57628 19.8613C2.54346 19.8285 2.52502 19.784 2.52502 19.7376V17.232C2.52502 17.232 2.52502 17.232 2.52502 17.232C2.52522 15.7645 3.10819 14.3572 4.14575 13.3195L4.14625 13.319L4.60113 12.8628C4.61738 12.8465 4.63669 12.8336 4.65795 12.8247C4.67921 12.8159 4.70201 12.8114 4.72502 12.8114C4.74804 12.8114 4.77084 12.8159 4.7921 12.8247C4.81336 12.8336 4.83267 12.8465 4.84892 12.8628ZM21.4752 12.4587L21.4761 12.4578C21.4924 12.4415 21.5117 12.4286 21.533 12.4197C21.5542 12.4109 21.577 12.4064 21.6 12.4064C21.623 12.4064 21.6458 12.4109 21.6671 12.4197C21.6883 12.4285 21.7076 12.4414 21.7238 12.4577C21.7239 12.4577 21.7239 12.4578 21.7239 12.4578L22.1788 12.914L22.1793 12.9145C23.2169 13.9522 23.7998 15.3595 23.8 16.827C23.8 16.827 23.8 16.827 23.8 16.827V19.7376C23.8 19.784 23.7816 19.8285 23.7488 19.8613C23.716 19.8941 23.6714 19.9126 23.625 19.9126C23.5786 19.9126 23.5341 19.8941 23.5013 19.8613C23.4685 19.8285 23.45 19.784 23.45 19.7376V16.827V16.8269C23.4499 15.4523 22.9039 14.134 21.932 13.1619L21.9315 13.1614L21.4752 12.7065C21.4752 12.7065 21.4752 12.7064 21.4752 12.7064C21.4589 12.6902 21.446 12.6709 21.4372 12.6496C21.4284 12.6284 21.4238 12.6056 21.4238 12.5826C21.4238 12.5596 21.4284 12.5368 21.4372 12.5155C21.446 12.4942 21.4589 12.4749 21.4752 12.4587Z" fill="black" stroke="black"/>
<path d="M21.1628 7.68728L20.8092 8.04084L21.1628 7.68728C20.5627 7.08717 19.7487 6.75002 18.9 6.75002C18.0513 6.75002 17.2374 7.08717 16.6373 7.68728L16.9908 8.04084L16.6373 7.68728C16.0372 8.2874 15.7 9.10133 15.7 9.95002C15.7 10.7987 16.0372 11.6126 16.6373 12.2128C17.2374 12.8129 18.0513 13.15 18.9 13.15C19.7487 13.15 20.5627 12.8129 21.1628 12.2128C21.7629 11.6126 22.1 10.7987 22.1 9.95002C22.1 9.10133 21.7629 8.2874 21.1628 7.68728ZM18.9 13.5C18.4338 13.5 17.9722 13.4082 17.5415 13.2298C17.1108 13.0514 16.7195 12.7899 16.3898 12.4603C16.0602 12.1306 15.7987 11.7393 15.6203 11.3086C15.4419 10.8778 15.35 10.4162 15.35 9.95002C15.35 9.48383 15.4419 9.0222 15.6203 8.5915C15.7987 8.16079 16.0602 7.76944 16.3898 7.4398C16.7195 7.11015 17.1108 6.84866 17.5415 6.67025C17.9722 6.49185 18.4338 6.40002 18.9 6.40002C19.8416 6.40002 20.7445 6.77404 21.4103 7.4398C22.076 8.10555 22.45 9.00851 22.45 9.95002C22.45 10.8915 22.076 11.7945 21.4103 12.4603C20.7445 13.126 19.8416 13.5 18.9 13.5ZM12.825 17.8875C11.7973 17.8875 10.8117 18.2958 10.085 19.0225C9.35829 19.7492 8.95004 20.7348 8.95004 21.7625V23.5175C8.95004 23.5639 8.9316 23.6084 8.89878 23.6413C8.86596 23.6741 8.82145 23.6925 8.77504 23.6925C8.72862 23.6925 8.68411 23.6741 8.65129 23.6413C8.61847 23.6084 8.60004 23.5639 8.60004 23.5175V21.7625C8.60004 20.642 9.04517 19.5673 9.83751 18.775C10.6299 17.9827 11.7045 17.5375 12.825 17.5375C13.9456 17.5375 15.0202 17.9827 15.8126 18.775C16.6049 19.5673 17.05 20.642 17.05 21.7625V23.5175C17.05 23.5639 17.0316 23.6085 16.9988 23.6413C16.966 23.6741 16.9215 23.6925 16.875 23.6925C16.8286 23.6925 16.7841 23.6741 16.7513 23.6413C16.7185 23.6084 16.7 23.5639 16.7 23.5175V21.7625C16.7 21.2537 16.5998 20.7498 16.4051 20.2796C16.2103 19.8095 15.9249 19.3823 15.5651 19.0225C15.2052 18.6627 14.7781 18.3772 14.3079 18.1825C13.8378 17.9878 13.3339 17.8875 12.825 17.8875Z" fill="black" stroke="black"/>
<path d="M12.825 16.8625C13.6737 16.8625 14.4876 16.5254 15.0878 15.9253C15.6879 15.3252 16.025 14.5112 16.025 13.6625C16.025 12.8139 15.6879 11.9999 15.0878 11.3998C14.4876 10.7997 13.6737 10.4625 12.825 10.4625C11.9763 10.4625 11.1624 10.7997 10.5623 11.3998C9.96217 11.9999 9.62502 12.8139 9.62502 13.6625C9.62502 14.5112 9.96217 15.3252 10.5623 15.9253C11.1624 16.5254 11.9763 16.8625 12.825 16.8625ZM15.3353 16.1728C14.6695 16.8385 13.7665 17.2125 12.825 17.2125C11.8835 17.2125 10.9805 16.8385 10.3148 16.1728C9.64904 15.507 9.27502 14.6041 9.27502 13.6625C9.27502 12.721 9.64904 11.8181 10.3148 11.1523C10.9805 10.4866 11.8835 10.1125 12.825 10.1125C13.7665 10.1125 14.6695 10.4866 15.3353 11.1523C16.001 11.8181 16.375 12.721 16.375 13.6625C16.375 14.6041 16.001 15.507 15.3353 16.1728Z" fill="black" stroke="black"/>
</svg>
