<svg width="50" height="60" viewBox="0 0 50 60" fill="none" xmlns="http://www.w3.org/2000/svg">
<path d="M0.0896239 39.6496C-0.610257 45.2486 2.88914 47.3483 7.08842 47.3483C17.5866 47.5816 37.0123 47.3483 42.0824 47.3483C45.5818 47.3483 50.0104 43.8489 49.4312 39.6496C48.0314 29.5013 44.5368 12.022 43.4822 8.15498C42.4324 4.30566 38.583 1.1562 34.0338 0.45633C29.3679 -0.0102564 20.3162 -0.103606 14.4372 0.456298C8.55817 1.0162 6.73848 4.69675 6.0386 8.15498C4.76382 14.4539 0.541034 36.0383 0.0896239 39.6496Z" fill="#3A3A3A"/>
<path d="M46.9816 50.1478H1.48939C3.23909 55.047 6.03861 59.9461 9.18807 59.9461H38.583C43.1322 59.9461 45.5818 54.697 46.9816 50.1478Z" fill="#3A3A3A"/>
<rect x="12.6875" y="6.75522" width="24.4958" height="10.4982" rx="2.79952" fill="#F1F1F1"/>
<rect x="21.086" y="22.8524" width="7.69868" height="2.79952" rx="1.39976" fill="#F1F1F1"/>
<path fill-rule="evenodd" clip-rule="evenodd" d="M16.8281 29.21C16.5269 27.5836 15.101 26.3519 13.3873 26.3519C11.6737 26.3519 10.2478 27.5836 9.94657 29.21C8.32016 29.5112 7.08843 30.9372 7.08843 32.6508C7.08843 34.3644 8.32016 35.7904 9.94657 36.0916C10.2478 37.718 11.6737 38.9497 13.3873 38.9497C15.101 38.9497 16.5269 37.718 16.8281 36.0916C18.4545 35.7904 19.6863 34.3644 19.6863 32.6508C19.6863 30.9372 18.4545 29.5112 16.8281 29.21Z" fill="#F1F1F1"/>
<circle cx="36.4834" cy="32.6508" r="6.29892" fill="#F1F1F1"/>
<circle cx="36.4834" cy="29.8513" r="1.39976" fill="#3A3A3A"/>
<circle cx="39.2829" cy="32.6508" r="1.39976" fill="#3A3A3A"/>
<circle cx="36.4834" cy="35.4503" r="1.39976" fill="#3A3A3A"/>
<circle cx="33.6839" cy="32.6508" r="1.39976" fill="#3A3A3A"/>
</svg>
