<svg width="27" height="28" viewBox="0 0 27 28" fill="none" xmlns="http://www.w3.org/2000/svg">
<path d="M19.719 8.93784L10.3855 4.8119C10.1471 4.70652 9.87956 4.68716 9.62852 4.75712C9.37748 4.82709 9.15851 4.98205 9.00903 5.19552L6.38947 8.93784" stroke="black" stroke-width="2" stroke-linecap="round"/>
<path d="M24.1875 8.9375H2.8125C2.66332 8.9375 2.52024 8.99676 2.41475 9.10225C2.30926 9.20774 2.25 9.35082 2.25 9.5V23C2.25 23.1492 2.30926 23.2923 2.41475 23.3977C2.52024 23.5032 2.66332 23.5625 2.8125 23.5625H24.1875C24.3367 23.5625 24.4798 23.5032 24.5852 23.3977C24.6907 23.2923 24.75 23.1492 24.75 23V9.5C24.75 9.35082 24.6907 9.20774 24.5852 9.10225C24.4798 8.99676 24.3367 8.9375 24.1875 8.9375Z" stroke="black" stroke-width="2"/>
<path d="M10.6875 13.4375L13.5579 19.0625L16.3125 13.4375" stroke="black" stroke-width="2" stroke-linecap="round" stroke-linejoin="round"/>
</svg>
