<svg width="400" height="66" viewBox="0 0 400 66" fill="none" xmlns="http://www.w3.org/2000/svg">
<path d="M0.0896239 42.6496C-0.610257 48.2486 2.88914 50.3483 7.08842 50.3483C17.5866 50.5816 37.0123 50.3483 42.0824 50.3483C45.5818 50.3483 50.0104 46.8489 49.4312 42.6496C48.0314 32.5013 44.5368 15.022 43.4822 11.155C42.4324 7.30566 38.583 4.1562 34.0338 3.45633C29.3679 2.98974 20.3162 2.89639 14.4372 3.4563C8.55817 4.0162 6.73848 7.69675 6.0386 11.155C4.76382 17.4539 0.541034 39.0383 0.0896239 42.6496Z" fill="#3A3A3A"/>
<path d="M46.9816 53.1478H1.48938C3.23908 58.047 6.0386 62.9461 9.18806 62.9461H38.583C43.1322 62.9461 45.5818 57.697 46.9816 53.1478Z" fill="#3A3A3A"/>
<rect x="12.6875" y="9.75522" width="24.4958" height="10.4982" rx="2.79952" fill="#F1F1F1"/>
<rect x="21.0861" y="25.8524" width="7.69868" height="2.79952" rx="1.39976" fill="#F1F1F1"/>
<path fill-rule="evenodd" clip-rule="evenodd" d="M16.8281 32.21C16.5269 30.5836 15.1009 29.3519 13.3873 29.3519C11.6737 29.3519 10.2477 30.5836 9.94652 32.21C8.32011 32.5112 7.08838 33.9372 7.08838 35.6508C7.08838 37.3644 8.32011 38.7904 9.94652 39.0916C10.2477 40.718 11.6737 41.9497 13.3873 41.9497C15.1009 41.9497 16.5269 40.718 16.8281 39.0916C18.4545 38.7904 19.6862 37.3644 19.6862 35.6508C19.6862 33.9372 18.4545 32.5112 16.8281 32.21Z" fill="#F1F1F1"/>
<circle cx="36.4834" cy="35.6508" r="6.29892" fill="#F1F1F1"/>
<circle cx="36.4834" cy="32.8513" r="1.39976" fill="#3A3A3A"/>
<circle cx="39.2828" cy="35.6508" r="1.39976" fill="#3A3A3A"/>
<circle cx="36.4834" cy="38.4503" r="1.39976" fill="#3A3A3A"/>
<circle cx="33.6838" cy="35.6508" r="1.39976" fill="#3A3A3A"/>
<path d="M101.054 27.085L99.0863 27.3037V2.67219H103.75V30H97.6288L78.4629 5.36854L80.3941 5.14991V30H75.7301V2.67219H81.9973L101.054 27.085ZM109.854 2.67219H114.664V30H109.854V2.67219ZM120.778 2.67219H125.588V30H120.778V2.67219ZM135.346 23.7328V19.7612H154.439V23.7328H135.346ZM148.026 2.67219L161.143 30H156.006L144.091 4.49405H145.949L134.034 30H128.897L142.014 2.67219H148.026ZM161.482 21.1094H166.364C166.51 22.2025 166.959 23.162 167.712 23.9879C168.49 24.8138 169.51 25.4575 170.773 25.919C172.036 26.3563 173.494 26.5749 175.146 26.5749C177.599 26.5749 179.542 26.1984 180.976 25.4454C182.409 24.668 183.125 23.6235 183.125 22.3118C183.125 21.243 182.712 20.4413 181.886 19.9069C181.061 19.3725 179.567 18.9717 177.405 18.7045L171.502 17.9393C168.198 17.5021 165.793 16.6883 164.287 15.498C162.806 14.2835 162.065 12.5709 162.065 10.3604C162.065 8.68431 162.563 7.23897 163.559 6.0244C164.579 4.78554 166.012 3.83818 167.858 3.18231C169.704 2.50215 171.866 2.16207 174.344 2.16207C176.797 2.16207 178.971 2.52645 180.866 3.25519C182.761 3.98393 184.267 5.00417 185.384 6.3159C186.526 7.60335 187.146 9.12156 187.243 10.8705H182.36C182.239 9.89888 181.826 9.06083 181.121 8.35638C180.441 7.65193 179.518 7.10537 178.352 6.71671C177.186 6.30376 175.814 6.09728 174.235 6.09728C172 6.09728 170.214 6.46165 168.878 7.19039C167.542 7.91913 166.874 8.91508 166.874 10.1782C166.874 11.1499 167.263 11.9029 168.04 12.4373C168.842 12.9474 170.227 13.3361 172.194 13.6033L178.17 14.4414C180.623 14.7814 182.554 15.243 183.963 15.826C185.397 16.3847 186.417 17.1499 187.024 18.1215C187.631 19.0689 187.935 20.2956 187.935 21.8017C187.935 23.5506 187.401 25.081 186.332 26.3927C185.263 27.7045 183.757 28.7247 181.814 29.4534C179.895 30.1579 177.648 30.5101 175.073 30.5101C172.449 30.5101 170.129 30.1215 168.113 29.3441C166.121 28.5425 164.542 27.4373 163.376 26.0284C162.21 24.6195 161.579 22.9798 161.482 21.1094ZM103.094 51.1215C103.07 52.8219 102.742 54.4251 102.111 55.9312C101.479 57.413 100.58 58.7247 99.4142 59.8664C98.2483 61.0081 96.8272 61.9069 95.1511 62.5628C93.4993 63.1943 91.6046 63.5101 89.4669 63.5101C87.305 63.5101 85.301 63.1822 83.4548 62.5263C81.6087 61.8705 79.9933 60.9352 78.6087 59.7207C77.2484 58.4818 76.1917 56.9879 75.4387 55.2389C74.6856 53.4899 74.3091 51.5223 74.3091 49.3361C74.3091 47.1499 74.6856 45.1823 75.4387 43.4333C76.216 41.6843 77.2969 40.2025 78.6816 38.988C80.0662 37.7491 81.6937 36.8017 83.5641 36.1459C85.4346 35.49 87.4872 35.1621 89.722 35.1621C92.5155 35.1621 94.9568 35.6236 97.0458 36.5467C99.1592 37.4455 100.86 38.6843 102.147 40.2633C103.434 41.8422 104.224 43.6519 104.515 45.6924H99.6329C99.3657 44.4049 98.7827 43.2875 97.8839 42.3402C97.0094 41.3928 95.8798 40.6641 94.4952 40.154C93.1106 39.6438 91.5074 39.3888 89.6855 39.3888C87.5479 39.3888 85.6896 39.7896 84.1107 40.5912C82.556 41.3685 81.3415 42.4981 80.467 43.9798C79.6168 45.4616 79.1917 47.247 79.1917 49.3361C79.1917 51.4252 79.6289 53.2227 80.5034 54.7288C81.4022 56.2348 82.6653 57.3887 84.2929 58.1903C85.9204 58.9919 87.8394 59.3927 90.0499 59.3927C92.1876 59.3927 94.058 59.0284 95.6612 58.2996C97.2645 57.5709 98.5276 56.5628 99.4507 55.2753C100.374 53.9636 100.872 52.4454 100.945 50.7207L103.094 51.1215ZM90.9973 53.1984V49.5547H104.807V63H101.236L100.653 51.6681L101.783 53.1984H90.9973ZM113.356 56.7328V52.7612H132.449V56.7328H113.356ZM126.036 35.6722L139.153 63H134.016L122.101 37.494H123.959L112.044 63H106.906L120.024 35.6722H126.036ZM179.249 35.6722V63H174.658V37.1297L176.152 37.2026L163.435 63H158.298L145.581 37.239L147.075 37.1661V63H142.484V35.6722H149.844L162.087 60.9231H159.682L171.889 35.6722H179.249ZM185.362 35.6722H190.171V63H185.362V35.6722ZM198.618 47.6236H218.257V51.8503H198.618V47.6236ZM218.84 35.6722V39.8989H198.472L201.095 37.1661V63H196.286V35.6722H218.84ZM223.258 35.6722H228.067V63H223.258V35.6722ZM263.003 52.1782C262.76 54.413 261.971 56.3927 260.635 58.1174C259.323 59.8178 257.598 61.1417 255.461 62.0891C253.323 63.0364 250.882 63.5101 248.137 63.5101C245.076 63.5101 242.392 62.915 240.084 61.7247C237.777 60.5344 235.979 58.8826 234.692 56.7693C233.404 54.6316 232.761 52.1539 232.761 49.3361C232.761 46.5183 233.404 44.0527 234.692 41.9394C235.979 39.8017 237.777 38.1378 240.084 36.9475C242.392 35.7572 245.076 35.1621 248.137 35.1621C250.882 35.1621 253.323 35.6358 255.461 36.5831C257.598 37.5305 259.323 38.8544 260.635 40.5548C261.971 42.2552 262.76 44.2349 263.003 46.494H258.157C257.89 45.0365 257.307 43.7855 256.408 42.741C255.534 41.6965 254.392 40.8948 252.983 40.3361C251.574 39.7531 249.947 39.4616 248.101 39.4616C245.963 39.4616 244.105 39.8625 242.526 40.6641C240.971 41.4657 239.769 42.6074 238.918 44.0892C238.068 45.5709 237.643 47.3199 237.643 49.3361C237.643 51.3523 238.068 53.1013 238.918 54.583C239.769 56.0648 240.971 57.2065 242.526 58.0081C244.105 58.8097 245.963 59.2105 248.101 59.2105C249.947 59.2105 251.574 58.9312 252.983 58.3725C254.392 57.8138 255.534 57.0122 256.408 55.9676C257.307 54.8988 257.89 53.6357 258.157 52.1782H263.003ZM269.814 56.7328V52.7612H288.908V56.7328H269.814ZM282.495 35.6722L295.612 63H290.474L278.559 37.494H280.418L268.503 63H263.365L276.482 35.6722H282.495ZM302.992 37.8949H307.802V63H302.992V37.8949ZM291.697 35.6722H319.098V39.8989H291.697V35.6722ZM322.748 35.6722H327.558V63H322.748V35.6722ZM347.882 63.5101C344.773 63.5101 342.04 62.915 339.684 61.7247C337.328 60.5344 335.494 58.8826 334.182 56.7693C332.87 54.6316 332.214 52.1539 332.214 49.3361C332.214 46.5183 332.87 44.0527 334.182 41.9394C335.494 39.8017 337.328 38.1378 339.684 36.9475C342.04 35.7572 344.773 35.1621 347.882 35.1621C350.992 35.1621 353.724 35.7572 356.081 36.9475C358.437 38.1378 360.271 39.8017 361.583 41.9394C362.894 44.0527 363.55 46.5183 363.55 49.3361C363.55 52.1539 362.894 54.6316 361.583 56.7693C360.271 58.8826 358.437 60.5344 356.081 61.7247C353.724 62.915 350.992 63.5101 347.882 63.5101ZM347.882 59.2105C350.093 59.2105 352 58.8097 353.603 58.0081C355.206 57.2065 356.445 56.0648 357.32 54.583C358.218 53.1013 358.668 51.3523 358.668 49.3361C358.668 47.3199 358.218 45.5709 357.32 44.0892C356.445 42.6074 355.206 41.4657 353.603 40.6641C352 39.8625 350.093 39.4616 347.882 39.4616C345.696 39.4616 343.789 39.8625 342.162 40.6641C340.558 41.4657 339.307 42.6074 338.409 44.0892C337.534 45.5709 337.097 47.3199 337.097 49.3361C337.097 51.3523 337.534 53.1013 338.409 54.583C339.307 56.0648 340.558 57.2065 342.162 58.0081C343.789 58.8097 345.696 59.2105 347.882 59.2105ZM393.547 60.085L391.579 60.3037V35.6722H396.243V63H390.122L370.956 38.3685L372.887 38.1499V63H368.223V35.6722H374.49L393.547 60.085Z" fill="#3A3A3A"/>
</svg>
