<svg width="23" height="22" viewBox="0 0 23 22" fill="none" xmlns="http://www.w3.org/2000/svg">
<path d="M14.875 21.125H8.125M14.875 21.125V11.675C14.875 11.496 14.8039 11.3243 14.6773 11.1977C14.5507 11.0711 14.379 11 14.2 11H8.8C8.62098 11 8.44929 11.0711 8.3227 11.1977C8.19612 11.3243 8.125 11.496 8.125 11.675V21.125M14.875 21.125H20.95C21.129 21.125 21.3007 21.0539 21.4273 20.9273C21.5539 20.8007 21.625 20.629 21.625 20.45V17.8625C21.625 17.6835 21.5539 17.5118 21.4273 17.3852C21.3007 17.2586 21.129 17.1875 20.95 17.1875H15.55C15.371 17.1875 15.1993 17.2586 15.0727 17.3852C14.9461 17.5118 14.875 17.6835 14.875 17.8625V21.125ZM8.125 21.125V15.6125C8.125 15.4335 8.05388 15.2618 7.9273 15.1352C7.80071 15.0086 7.62902 14.9375 7.45 14.9375H2.05C1.87098 14.9375 1.69929 15.0086 1.5727 15.1352C1.44612 15.2618 1.375 15.4335 1.375 15.6125V20.45C1.375 20.629 1.44612 20.8007 1.5727 20.9273C1.69929 21.0539 1.87098 21.125 2.05 21.125H8.125ZM10.1567 3.25214L11.1794 1.08427C11.207 1.02229 11.252 0.96965 11.3089 0.932706C11.3658 0.895761 11.4322 0.876099 11.5 0.876099C11.5678 0.876099 11.6342 0.895761 11.6911 0.932706C11.748 0.96965 11.793 1.02229 11.8206 1.08427L12.8444 3.25214L15.1304 3.60202C15.424 3.64702 15.541 4.02502 15.3284 4.24102L13.6746 5.92852L14.065 8.31127C14.1145 8.61727 13.8085 8.85127 13.5452 8.70614L11.5 7.58114L9.45475 8.70614C9.19263 8.85014 8.8855 8.61727 8.935 8.31127L9.32538 5.92852L7.67163 4.24102C7.45788 4.02502 7.576 3.64702 7.8685 3.60202L10.1567 3.25214Z" stroke="black" stroke-width="1.5" stroke-linecap="round" stroke-linejoin="round"/>
</svg>
