<svg width="86" height="75" viewBox="0 0 86 75" fill="none" xmlns="http://www.w3.org/2000/svg">
<rect x="40.1333" y="11.4663" width="5.73333" height="5.73333" fill="black"/>
<rect x="45.8667" y="5.7334" width="5.73333" height="5.73333" fill="black"/>
<rect x="51.6001" width="5.73333" height="5.73333" fill="black"/>
<rect x="57.3333" width="5.73333" height="5.73333" fill="black"/>
<rect x="63.0667" width="5.73333" height="5.73333" fill="black"/>
<rect x="68.8" width="5.73333" height="5.73333" fill="black"/>
<rect x="74.5334" y="5.7334" width="5.73333" height="5.73333" fill="black"/>
<rect x="80.2666" y="11.4663" width="5.73333" height="5.73333" fill="black"/>
<rect x="80.2666" y="17.1997" width="5.73333" height="5.73333" fill="black"/>
<rect x="80.2666" y="22.9331" width="5.73333" height="5.73333" fill="black"/>
<rect x="80.2666" y="28.6665" width="5.73333" height="5.73333" fill="black"/>
<rect x="74.5334" y="34.3999" width="5.73333" height="5.73333" fill="black"/>
<rect x="68.8" y="40.1333" width="5.73333" height="5.73333" fill="black"/>
<rect x="63.0667" y="45.8667" width="5.73333" height="5.73333" fill="black"/>
<rect x="57.3333" y="51.6001" width="5.73333" height="5.73333" fill="black"/>
<rect x="51.6001" y="57.333" width="5.73333" height="5.73333" fill="black"/>
<rect x="45.8667" y="63.0664" width="5.73333" height="5.73333" fill="black"/>
<rect x="40.1333" y="68.7998" width="5.73333" height="5.73333" fill="black"/>
<rect x="34.3999" y="63.0664" width="5.73333" height="5.73333" fill="black"/>
<rect x="28.6667" y="57.333" width="5.73333" height="5.73333" fill="black"/>
<rect x="22.9333" y="51.6001" width="5.73333" height="5.73333" fill="black"/>
<rect x="17.2" y="45.8667" width="5.73333" height="5.73333" fill="black"/>
<rect x="11.4666" y="40.1333" width="5.73333" height="5.73333" fill="black"/>
<rect x="5.7334" y="34.3999" width="5.73333" height="5.73333" fill="black"/>
<rect y="28.6665" width="5.73333" height="5.73333" fill="black"/>
<rect y="22.9331" width="5.73333" height="5.73333" fill="black"/>
<rect y="17.1997" width="5.73333" height="5.73333" fill="black"/>
<rect y="11.4663" width="5.73333" height="5.73333" fill="black"/>
<rect x="5.7334" y="5.7334" width="5.73333" height="5.73333" fill="black"/>
<rect x="11.4666" width="5.73333" height="5.73333" fill="black"/>
<rect x="17.2" width="5.73333" height="5.73333" fill="black"/>
<rect x="22.9333" width="5.73333" height="5.73333" fill="black"/>
<rect x="28.6667" width="5.73333" height="5.73333" fill="black"/>
<rect x="34.3999" y="5.7334" width="5.73333" height="5.73333" fill="black"/>
<rect x="11.4666" y="5.7334" width="5.73333" height="5.73333" fill="#6A7ADA"/>
<rect x="11.4666" y="11.4663" width="5.73333" height="5.73333" fill="#6A7ADA"/>
<rect x="5.7334" y="11.4663" width="5.73333" height="5.73333" fill="#6A7ADA"/>
<rect x="5.7334" y="17.1997" width="5.73333" height="5.73333" fill="#6A7ADA"/>
<rect x="5.7334" y="22.9331" width="5.73333" height="5.73333" fill="#6A7ADA"/>
<rect x="5.7334" y="28.6665" width="5.73333" height="5.73333" fill="#6A7ADA"/>
<rect x="11.4666" y="34.3999" width="5.73333" height="5.73333" fill="#6A7ADA"/>
<rect x="17.2" y="40.1333" width="5.73333" height="5.73333" fill="#6A7ADA"/>
<rect x="22.9333" y="45.8667" width="5.73333" height="5.73333" fill="#6A7ADA"/>
<rect x="28.6667" y="51.6001" width="5.73333" height="5.73333" fill="#6A7ADA"/>
<rect x="34.3999" y="57.333" width="5.73333" height="5.73333" fill="#6A7ADA"/>
<rect x="40.1333" y="63.0664" width="5.73333" height="5.73333" fill="#6A7ADA"/>
<rect x="45.8667" y="57.333" width="5.73333" height="5.73333" fill="#6A7ADA"/>
<rect x="51.6001" y="51.6001" width="5.73333" height="5.73333" fill="#6A7ADA"/>
<rect x="57.3333" y="45.8667" width="5.73333" height="5.73333" fill="#6A7ADA"/>
<rect x="63.0667" y="40.1333" width="5.73333" height="5.73333" fill="#6A7ADA"/>
<rect x="68.8" y="34.3999" width="5.73333" height="5.73333" fill="#6A7ADA"/>
<rect x="40.1333" y="57.333" width="5.73333" height="5.73333" fill="#6A7ADA"/>
<rect x="45.8667" y="51.6001" width="5.73333" height="5.73333" fill="#6A7ADA"/>
<rect x="51.6001" y="45.8667" width="5.73333" height="5.73333" fill="#6A7ADA"/>
<rect x="57.3333" y="40.1333" width="5.73333" height="5.73333" fill="#6A7ADA"/>
<rect x="63.0667" y="34.3999" width="5.73333" height="5.73333" fill="#6A7ADA"/>
<rect x="68.8" y="28.6665" width="5.73333" height="5.73333" fill="#6A7ADA"/>
<rect x="74.5334" y="28.6665" width="5.73333" height="5.73333" fill="#6A7ADA"/>
<rect x="40.1333" y="51.6001" width="5.73333" height="5.73333" fill="#6A7ADA"/>
<rect x="45.8667" y="45.8667" width="5.73333" height="5.73333" fill="#6A7ADA"/>
<rect x="51.6001" y="40.1333" width="5.73333" height="5.73333" fill="#6A7ADA"/>
<rect x="57.3333" y="34.3999" width="5.73333" height="5.73333" fill="#6A7ADA"/>
<rect x="63.0667" y="28.6665" width="5.73333" height="5.73333" fill="#6A7ADA"/>
<rect x="68.8" y="22.9331" width="5.73333" height="5.73333" fill="#6A7ADA"/>
<rect x="74.5334" y="22.9331" width="5.73333" height="5.73333" fill="#6A7ADA"/>
<rect x="40.1333" y="45.8667" width="5.73333" height="5.73333" fill="#6A7ADA"/>
<rect x="45.8667" y="40.1333" width="5.73333" height="5.73333" fill="#6A7ADA"/>
<rect x="51.6001" y="34.3999" width="5.73333" height="5.73333" fill="#6A7ADA"/>
<rect x="57.3333" y="28.6665" width="5.73333" height="5.73333" fill="#6A7ADA"/>
<rect x="63.0667" y="22.9331" width="5.73333" height="5.73333" fill="#6A7ADA"/>
<rect x="68.8" y="17.1997" width="5.73333" height="5.73333" fill="#6A7ADA"/>
<rect x="74.5334" y="17.1997" width="5.73333" height="5.73333" fill="#6A7ADA"/>
<rect x="40.1333" y="40.1333" width="5.73333" height="5.73333" fill="#6A7ADA"/>
<rect x="45.8667" y="34.3999" width="5.73333" height="5.73333" fill="#6A7ADA"/>
<rect x="51.6001" y="28.6665" width="5.73333" height="5.73333" fill="#6A7ADA"/>
<rect x="57.3333" y="22.9331" width="5.73333" height="5.73333" fill="#6A7ADA"/>
<rect x="63.0667" y="17.1997" width="5.73333" height="5.73333" fill="#6A7ADA"/>
<rect x="68.8" y="11.4663" width="5.73333" height="5.73333" fill="#6A7ADA"/>
<rect x="74.5334" y="11.4663" width="5.73333" height="5.73333" fill="#6A7ADA"/>
<rect x="40.1333" y="34.3999" width="5.73333" height="5.73333" fill="#6A7ADA"/>
<rect x="45.8667" y="28.6665" width="5.73333" height="5.73333" fill="#6A7ADA"/>
<rect x="51.6001" y="22.9331" width="5.73333" height="5.73333" fill="#6A7ADA"/>
<rect x="57.3333" y="17.1997" width="5.73333" height="5.73333" fill="#6A7ADA"/>
<rect x="63.0667" y="11.4663" width="5.73333" height="5.73333" fill="#6A7ADA"/>
<rect x="68.8" y="5.7334" width="5.73333" height="5.73333" fill="#6A7ADA"/>
<rect x="40.1333" y="28.6665" width="5.73333" height="5.73333" fill="#6A7ADA"/>
<rect x="45.8667" y="22.9331" width="5.73333" height="5.73333" fill="#6A7ADA"/>
<rect x="51.6001" y="17.1997" width="5.73333" height="5.73333" fill="#6A7ADA"/>
<rect x="57.3333" y="11.4663" width="5.73333" height="5.73333" fill="#6A7ADA"/>
<rect x="63.0667" y="5.7334" width="5.73333" height="5.73333" fill="#6A7ADA"/>
<rect x="40.1333" y="22.9331" width="5.73333" height="5.73333" fill="#6A7ADA"/>
<rect x="45.8667" y="17.1997" width="5.73333" height="5.73333" fill="#6A7ADA"/>
<rect x="51.6001" y="11.4663" width="5.73333" height="5.73333" fill="#6A7ADA"/>
<rect x="57.3333" y="5.7334" width="5.73333" height="5.73333" fill="#6A7ADA"/>
<rect x="40.1333" y="17.1997" width="5.73333" height="5.73333" fill="#6A7ADA"/>
<rect x="45.8667" y="11.4663" width="5.73333" height="5.73333" fill="#6A7ADA"/>
<rect x="51.6001" y="5.7334" width="5.73333" height="5.73333" fill="#6A7ADA"/>
<rect x="34.3999" y="51.6001" width="5.73333" height="5.73333" fill="#6A7ADA"/>
<rect x="28.6667" y="45.8667" width="5.73333" height="5.73333" fill="#6A7ADA"/>
<rect x="22.9333" y="40.1333" width="5.73333" height="5.73333" fill="#6A7ADA"/>
<rect x="17.2" y="34.3999" width="5.73333" height="5.73333" fill="#6A7ADA"/>
<rect x="11.4666" y="28.6665" width="5.73333" height="5.73333" fill="#6A7ADA"/>
<rect x="17.2" y="22.9331" width="5.73333" height="5.73333" fill="#6A7ADA"/>
<rect x="22.9333" y="17.1997" width="5.73333" height="5.73333" fill="#6A7ADA"/>
<rect x="22.9333" y="22.9331" width="5.73333" height="5.73333" fill="#6A7ADA"/>
<rect x="22.9333" y="28.6665" width="5.73333" height="5.73333" fill="#6A7ADA"/>
<rect x="22.9333" y="34.3999" width="5.73333" height="5.73333" fill="#6A7ADA"/>
<rect x="28.6667" y="17.1997" width="5.73333" height="5.73333" fill="#6A7ADA"/>
<rect x="28.6667" y="22.9331" width="5.73333" height="5.73333" fill="#6A7ADA"/>
<rect x="28.6667" y="28.6665" width="5.73333" height="5.73333" fill="#6A7ADA"/>
<rect x="28.6667" y="34.3999" width="5.73333" height="5.73333" fill="#6A7ADA"/>
<rect x="34.3999" y="17.1997" width="5.73333" height="5.73333" fill="#6A7ADA"/>
<rect x="34.3999" y="22.9331" width="5.73333" height="5.73333" fill="#6A7ADA"/>
<rect x="34.3999" y="28.6665" width="5.73333" height="5.73333" fill="#6A7ADA"/>
<rect x="34.3999" y="34.3999" width="5.73333" height="5.73333" fill="#6A7ADA"/>
<rect x="34.3999" y="40.1333" width="5.73333" height="5.73333" fill="#6A7ADA"/>
<rect x="28.6667" y="40.1333" width="5.73333" height="5.73333" fill="#6A7ADA"/>
<rect x="17.2" y="28.6665" width="5.73333" height="5.73333" fill="#6A7ADA"/>
<rect x="34.3999" y="45.8667" width="5.73333" height="5.73333" fill="#6A7ADA"/>
<rect x="17.2" y="5.7334" width="5.73333" height="5.73333" fill="#6A7ADA"/>
<rect x="22.9333" y="5.7334" width="5.73333" height="5.73333" fill="#6A7ADA"/>
<rect x="28.6667" y="5.7334" width="5.73333" height="5.73333" fill="#6A7ADA"/>
<rect x="34.3999" y="11.4663" width="5.73333" height="5.73333" fill="#6A7ADA"/>
<rect x="28.6667" y="11.4663" width="5.73333" height="5.73333" fill="#6A7ADA"/>
<rect x="22.9333" y="11.4663" width="5.73333" height="5.73333" fill="white"/>
<rect x="17.2" y="11.4663" width="5.73333" height="5.73333" fill="white"/>
<rect x="17.2" y="17.1997" width="5.73333" height="5.73333" fill="white"/>
<rect x="11.4666" y="22.9331" width="5.73333" height="5.73333" fill="white"/>
<rect x="11.4666" y="17.1997" width="5.73333" height="5.73333" fill="white"/>
</svg>
